<svg width="24px" height="24px" viewBox="0 0 24 24" version="1.1" xmlns="http://www.w3.org/2000/svg" xmlns:xlink="http://www.w3.org/1999/xlink">
    <defs></defs>
    <g id="Page-1" stroke="none" stroke-width="1" fill="none" fill-rule="evenodd">
        <g id="Finch">
            <circle id="Oval" fill="#4E7178" cx="12" cy="12" r="12"></circle>
            <path d="M8.9564557,3.06761326 C8.74905063,3.0641436 8.53552532,3.07881642 8.32875949,3.12424401 C7.80274684,3.23981695 7.28787342,3.59681992 7.32243038,3.76385064 C7.34892405,3.89189557 7.35167089,3.87211838 7.25420253,3.8721122 C6.89581646,3.87211282 6.06875949,4.31016456 6.06875949,4.31016456 C6.06875949,4.31016456 6.65624684,4.27518675 6.70496203,4.34181115 C6.75367722,4.40843556 6.72494304,4.44532001 6.78342405,4.48338492 C6.84190506,4.52144983 7.13431013,4.56976179 6.78342405,4.53168761 C6.43253797,4.49361344 6.17790506,4.51836273 6.17790506,4.51836273 C6.17790506,4.51836273 6.68355063,4.67758146 7.00518354,4.96307753 C7.06332975,5.01469476 7.30510127,5.1083657 7.32244304,5.22291271 C7.35126266,5.41329905 7.26883671,5.32654517 7.28321203,5.5177226 C7.30473101,5.80391088 7.35631329,5.77898544 7.2490981,5.94078756 C7.14188291,6.10258968 7.37603481,6.05247923 7.20475,6.3588526 C7.08596519,6.57132759 7.23765506,6.67790809 7.08023734,6.79357374 C7.08023734,6.79357374 7.00062342,6.86132297 6.97960443,6.88185416 C6.95858544,6.90238536 7.1274019,6.87104779 7.08535759,6.90184149 C7.04331329,6.93263519 6.69237025,7.39382995 6.52418671,7.93785714 C6.35600316,8.48188432 6.14235127,9.56261496 6.20181329,10.0748441 C6.24917532,10.4828105 6.92396519,12.888211 7.02909177,13.1345606 C7.13421835,13.3809102 8.05130696,15.311102 9.02814241,16.2475518 C9.28991456,16.4984934 9.43924367,16.703175 9.5227943,16.8471715 C9.11019937,16.9773301 9.12537025,17.0853506 9.12537025,17.0853506 C9.12537025,17.0853506 9.11682848,17.1769561 9.08272785,17.1769561 C9.04862722,17.1769561 8.98036076,17.2102775 8.92068987,17.2352524 C8.86101899,17.2602273 8.66482911,17.2102813 8.64777848,17.2435805 C8.63072785,17.2768797 8.64774937,17.193606 8.57102532,17.1769561 C8.49430127,17.1603062 8.33220886,17.1520034 8.28105696,17.2352524 C8.22990506,17.3185014 8.24690759,17.3601763 8.15313291,17.3768262 C8.05935823,17.3934761 7.93877215,17.3742904 7.89727848,17.3934823 C7.73529747,17.4684069 7.62434177,17.4684317 7.55613924,17.4684317 C7.48793671,17.4684317 7.39579114,17.5434119 7.36168987,17.6100054 C7.32805127,17.6757028 7.31964557,17.7736184 7.36851266,17.8481846 C7.29796203,17.8747274 7.1308038,17.9526638 7.03760759,18.1346695 C6.91825316,18.3677684 7.11436076,18.6260214 7.11436076,18.6260214 C7.31896835,18.9007451 7.57323418,18.8217167 7.69258861,18.7925824 C7.69368797,18.7923142 7.69489873,18.7911856 7.696,18.7909168 C7.70837468,18.8283155 7.73361013,18.8677512 7.78639873,18.8725286 C7.86251266,18.8794154 7.89532911,19.1124197 8.22646835,19.2089818 C8.35194304,19.2455721 8.52256329,19.1746598 8.6273038,19.1190389 C8.76829747,19.2314042 8.93339241,19.2859275 8.98891139,19.3072497 C9.07358861,19.3397752 9.16910759,19.2369542 9.31981646,19.2722725 C9.40851899,19.2930615 9.39832278,19.1804322 9.44091772,19.1789984 C9.61573418,19.173111 9.63460759,19.0961011 9.61489873,19.0607432 C9.54838608,18.9414064 9.66915316,18.82003 9.61489873,18.7376148 C9.52958228,18.6080186 9.56681139,18.5193303 9.51255696,18.4428049 C9.4872,18.4070385 9.44593671,18.3622314 9.41533544,18.3045624 C9.56144937,18.2555841 9.70752532,18.2038161 9.85199367,18.1496637 C9.88236266,18.3073868 9.87811519,18.3339438 9.92874684,18.344537 C9.95858544,18.3507804 10.0435063,18.3611171 10.0924937,18.404499 C10.1196614,18.4285567 10.1112323,18.4261791 10.1760759,18.4428074 C10.2409196,18.4594357 10.3361646,18.5212981 10.4251076,18.5277504 C10.775057,18.5531523 10.8950316,18.4378013 10.9078165,18.4128264 C10.9206013,18.3878515 11.0432911,18.4211186 11.1994873,18.3195522 C11.3278228,18.2361049 11.3240316,18.171384 11.3888165,18.1596537 C11.5157658,18.136667 11.4920063,17.9494778 11.4860443,17.9114808 C11.5587975,17.9095662 11.5866772,17.8948247 11.5866772,17.8948247 C11.5866772,17.8948247 11.3088418,17.7777747 11.4655759,17.8248691 C11.6223101,17.8719636 12.3471582,18.1415637 12.5520949,18.1180165 C12.7570316,18.0944693 12.5277209,18.1549306 12.2263101,17.9547867 C11.9248994,17.7546428 12.6486899,18.0478322 12.8898544,18.0713794 C13.131019,18.0949266 13.1779684,18.1418356 12.8403899,17.9181433 C12.5028114,17.6944509 13.2870038,18.0721334 13.4919722,18.1663161 C13.6969405,18.2604988 13.6250608,18.2246563 13.4442127,18.0480609 C13.2633646,17.8714654 13.5402253,17.9063264 13.8416367,18.094698 C14.1430481,18.2830695 14.3482253,18.3428708 14.3482253,18.3428708 C14.3482253,18.3428708 13.6968962,17.8832366 14.0224405,18.0480609 C14.3479848,18.2128852 15.1554152,18.6728346 15.4688962,18.8259224 C15.7823772,18.9790102 15.8797886,19.2365586 16.6032,19.6603962 C17.3266114,20.0842337 17.3861114,20.1084422 17.3861114,20.1084422 C17.3861114,20.1084422 17.8563709,20.6374943 18.0854152,20.8729541 C18.3144595,21.1084139 19.0150354,21.942282 19.0150354,21.942282 C19.0150354,21.942282 19.6121873,22.6802183 20.0469975,22.8800297 C20.4818076,23.0798411 20.5502759,22.9216384 20.8145291,22.8383895 C21.0787823,22.7551405 20.8571487,22.4219499 20.7974722,22.3137254 C20.7377956,22.2055009 20.8315595,22.1554584 20.7633582,22.0555589 C20.695157,21.9556594 20.1612506,21.3759653 20.1612506,21.3759653 L20.1714848,21.3759653 C20.1714854,21.3759653 19.7202696,20.790134 19.625662,20.6464342 C19.5310544,20.5027344 19.2348266,20.171757 19.2077696,20.0051589 C19.1696025,19.7701626 19.1419532,19.7295638 19.1071367,19.6487183 C19.0514899,19.5195115 18.9886684,19.5729408 18.892219,19.3539084 C18.8155797,19.179863 18.4976747,19.010731 18.4811494,18.9175186 C18.4475785,18.7282015 17.6241873,17.8390438 17.4287443,17.6599984 C17.2832823,17.5267064 17.3266367,17.5446789 17.2530608,17.3701823 C17.1794848,17.1956857 16.9213519,17.0890619 16.959681,17.0453914 C17.0581177,16.9332486 16.9005563,16.8613956 17.0330228,16.757244 C17.075069,16.664866 16.9143709,16.3556682 16.7567,16.1092938 C16.5990291,15.8629195 16.3040987,15.493253 16.2620481,15.4214185 C16.2199975,15.349584 15.9254722,15.0735378 15.9464975,15.0016848 C15.9675228,14.9298318 15.788143,14.7034571 15.7776367,14.5802885 C15.7671304,14.4571199 15.6207127,14.2718014 15.6207127,14.1588922 C15.6207127,14.045983 15.3588646,13.4162588 15.276162,13.292775 C15.2393209,13.2377709 14.987757,13.0241081 14.9998392,12.9113534 C15.0307418,12.6229711 14.4320481,11.660199 14.1640797,11.1341258 C13.9063962,10.6283427 14.0858835,10.9949253 13.340219,9.26363641 C13.2395734,9.02995038 13.2244658,8.89320967 13.1508899,8.72897866 C13.0773139,8.56474765 13.0664405,8.50372885 13.0349025,8.32923224 C13.0033646,8.15473564 12.9189152,8.22615601 12.9189152,8.09271561 C12.9189152,7.95927521 12.9188734,7.93854625 12.8558044,7.78458084 C12.7927354,7.63061542 12.8358494,7.53857115 12.7517601,7.45645874 C12.6676709,7.37434633 12.7824209,7.12802145 12.7193519,7.07669964 C12.6562829,7.02537784 12.5828962,6.73858389 12.5828962,6.73858389 C12.5828962,6.73858389 12.6769468,6.67718684 12.6033646,6.60533508 C12.5297823,6.53348332 12.5402544,6.28720664 12.5402544,6.28720664 C12.5402544,6.28720664 12.6778177,6.28635375 12.6357734,6.25556005 C12.5989842,6.22861611 12.4813494,6.05205279 12.4737354,6.02903708 C12.4744576,6.02939987 12.475669,6.02925958 12.4771468,6.03070269 C12.508681,6.06149639 12.6391848,5.96574699 12.6391848,5.96574699 C12.4530646,5.83755373 12.3917038,5.06192948 11.7334886,4.29679951 C11.4185646,3.93073611 10.582919,3.40151092 10.3348177,3.32073346 C10.1487354,3.26016335 9.57886835,3.07797466 8.95658987,3.06756073 L8.9564557,3.06761326 Z M10.9401899,17.6563798 C10.9754013,17.6922829 11.0116266,17.7279115 11.0493544,17.7613102 C11.0304696,17.81425 10.9881297,17.9376918 10.9947722,17.9928269 C11.0032975,18.063586 11.0894494,18.0777885 11.1192848,18.1194133 C11.1491203,18.1610381 11.1139082,18.1685658 11.0698196,18.2143499 C11.0131247,18.2732291 10.7926108,18.2518246 10.6945665,18.2476621 C10.5965222,18.2434997 10.4549778,18.1522125 10.377307,18.0711075 C10.3047943,17.9953856 10.3848627,18.048182 10.3756013,17.9361962 C10.5356519,17.8654865 10.6907215,17.790704 10.8361392,17.7130044 C10.8705291,17.7349546 10.8972778,17.7484507 10.9111899,17.752979 C10.9471595,17.7646871 10.9273259,17.7289176 10.8924278,17.6813609 C10.9082975,17.6726342 10.92455,17.66519 10.9401867,17.6563768 L10.9401899,17.6563798 Z M10.3585506,18.1094258 C10.3609247,18.110579 10.3704766,18.1208218 10.3926646,18.1460686 C10.5421709,18.3161895 10.7194051,18.3286986 10.7116266,18.3176233 C10.7116266,18.3176233 10.6790861,18.3607543 10.7491519,18.4108975 C10.7521658,18.4167843 10.7721171,18.4245728 10.7167437,18.4292186 C10.4189715,18.4542021 10.3085348,18.4073407 10.322731,18.3625942 C10.3369272,18.3178477 10.3258449,18.3233482 10.3210253,18.2826449 C10.3163462,18.2431208 10.3341025,18.2437679 10.361962,18.2226836 C10.4069519,18.1886359 10.3514291,18.1059611 10.3585506,18.1094221 L10.3585506,18.1094258 Z M9.02810759,18.4292229 C9.08675506,18.5005568 9.14453797,18.5185478 9.16967722,18.5308282 C9.20584684,18.548488 9.22995949,18.759675 9.16967722,18.7773385 C9.15141899,18.7826876 9.09691772,18.7844348 9.03663291,18.8256412 C8.9763481,18.8668476 8.97146835,18.9434453 9.00763608,18.9905335 C9.07491456,19.0781279 8.96408291,19.0376038 8.97011076,19.0788078 C8.97613861,19.1200117 8.7772943,19.0431903 8.60850316,18.937234 C8.48998418,18.8628347 8.43906646,18.6804705 8.42258544,18.604112 C8.61660443,18.5510572 8.82050949,18.4930507 9.02810443,18.429226 L9.02810759,18.4292229 Z M8.41235443,18.6074401 C8.40470316,18.6946204 8.40367342,18.9212052 8.59144937,19.090467 C8.59477089,19.0934608 8.59832025,19.0958724 8.60168354,19.0987951 C8.20801266,19.1979035 8.06843038,18.9918499 8.09338608,18.9422277 C8.1090962,18.9109903 8.00896835,18.8805754 8.04733228,18.8139788 C8.0856962,18.7473823 8.13261709,18.8014599 8.13261709,18.7306983 C8.13261709,18.7124669 8.13344747,18.6971272 8.13432278,18.6807307 C8.22453797,18.657249 8.3166519,18.6335652 8.4123481,18.6074438 L8.41235443,18.6074401 Z" id="Shape" fill="#FFFFFF"></path>
        </g>
    </g>
</svg>