<?xml version="1.0" standalone="no"?>
<!DOCTYPE svg PUBLIC "-//W3C//DTD SVG 20010904//EN"
 "http://www.w3.org/TR/2001/REC-SVG-20010904/DTD/svg10.dtd">
<svg version="1.0" xmlns="http://www.w3.org/2000/svg"
 width="270.000000pt" height="270.000000pt" viewBox="0 0 270.000000 270.000000"
 preserveAspectRatio="xMidYMid meet">
<metadata>
Created by potrace 1.11, written by Peter Selinger 2001-2013
</metadata>
<g transform="translate(0.000000,270.000000) scale(0.100000,-0.100000)"
fill="#000000" stroke="none">
<path d="M856 2464 c-26 -14 -51 -34 -53 -45 -3 -10 -14 -19 -24 -19 -11 0
-27 -4 -37 -10 -9 -5 -30 -15 -47 -22 l-30 -12 33 -4 c19 -2 32 -9 32 -17 0
-11 -8 -13 -32 -9 l-33 6 40 -22 c91 -51 94 -54 89 -118 -5 -71 -13 -113 -26
-129 -6 -7 -8 -13 -4 -13 3 0 -5 -17 -19 -38 -27 -41 -60 -157 -71 -248 -6
-53 6 -142 26 -204 5 -14 21 -70 36 -125 15 -55 40 -127 57 -160 34 -69 112
-198 136 -227 38 -47 54 -65 83 -97 l31 -34 -33 -29 c-27 -23 -40 -27 -62 -23
-16 4 -34 2 -41 -3 -7 -5 -25 -13 -42 -17 -16 -5 -33 -9 -37 -10 -5 -2 -12 -3
-18 -4 -5 0 -10 -8 -10 -16 0 -9 -9 -29 -21 -44 -19 -26 -20 -32 -7 -57 9 -21
22 -30 43 -32 17 -2 40 -13 52 -25 21 -18 48 -24 128 -27 11 -1 30 2 42 5 19
4 22 11 19 43 -2 20 -6 44 -7 52 -3 9 5 16 19 18 12 2 22 -1 22 -7 0 -8 41
-23 75 -26 31 -3 105 42 105 64 0 14 2 14 37 0 15 -6 51 -12 80 -13 44 -1 50
1 40 13 -7 8 6 5 32 -8 23 -12 46 -20 49 -17 3 3 0 6 -6 6 -7 0 -12 5 -12 11
0 13 39 2 63 -19 9 -8 20 -12 24 -9 3 4 0 7 -7 7 -7 0 -11 2 -8 5 3 3 28 -6
54 -21 27 -15 65 -36 84 -47 19 -10 51 -33 71 -50 20 -18 63 -48 96 -67 70
-42 105 -76 230 -226 106 -127 144 -152 199 -134 22 8 34 18 34 30 0 26 -25
82 -50 110 -52 58 -133 175 -144 206 -12 36 -48 85 -159 218 -37 44 -72 86
-77 93 -6 7 -10 26 -10 43 0 42 -43 121 -97 178 -15 16 -53 100 -53 117 0 16
-39 105 -54 125 -7 8 -23 42 -36 75 -13 33 -33 76 -45 95 -19 31 -38 74 -103
220 -53 120 -100 290 -108 390 -6 79 -20 117 -79 215 -24 40 -133 123 -187
142 -24 9 -83 17 -133 19 -82 4 -94 2 -139 -22z m360 -1687 c1 -15 -2 -28 -9
-28 -24 -3 -42 3 -56 16 -11 11 -9 16 15 29 37 19 46 16 50 -17z m165 -5 c-7
-2 -18 1 -23 6 -8 8 -4 9 13 5 13 -4 18 -8 10 -11z m-213 -31 c11 -7 11 -9 -1
-14 -16 -6 -27 0 -27 15 0 10 11 10 28 -1z m-163 -31 c3 -5 -2 -21 -11 -35
-15 -23 -19 -24 -38 -12 -27 19 -32 44 -9 50 32 8 52 7 58 -3z m-74 -42 c13
-24 -15 -31 -36 -9 -15 17 -15 20 2 36 14 14 18 15 21 4 3 -8 9 -21 13 -31z"/>
</g>
</svg>
